<?xml version="1.0" encoding="UTF-8"?>
<svg id="Laag_2" data-name="Laag 2" xmlns="http://www.w3.org/2000/svg" viewBox="0 0 261.86 71.57">
  <g id="Laag_1-2" data-name="Laag 1">
    <g>
      <path d="m24.77,28.73h-3.53c-6.34,0-10.15,2.81-10.15,9.94v15.63H0V18.36h10.44l.58,5.33c1.51-3.53,4.68-5.9,9.5-5.9,1.3,0,2.74.14,4.25.5v10.44Z"/>
      <path d="m27.36,36.22c0-11.23,7.56-19.08,18.43-19.08s18.36,7.42,18.36,19.15v2.81l-26.14.14c.65,4.75,3.31,6.98,8.21,6.98,4.18,0,7.13-1.51,7.92-4.1h10.15c-1.3,7.99-8.42,13.1-18.29,13.1-10.87,0-18.65-7.92-18.65-19.01Zm10.8-3.82h14.98c0-3.82-2.81-6.26-7.27-6.26s-6.84,1.94-7.7,6.26Z"/>
      <path d="m65.09,18.29h11.95l4.39,12.6c1.8,5.26,3.24,9.79,3.53,11.45.43-2.09,2.02-6.77,3.82-11.45l4.82-12.6h11.52l-15.05,36h-10.94l-14.04-36Z"/>
      <path d="m116.5,42.92c.14,2.52,2.02,4.03,5.4,4.03s5.04-1.22,5.04-3.1c0-1.08-.58-2.23-3.24-2.81l-6.62-1.44c-6.62-1.44-9.87-4.32-9.87-10.66,0-7.49,6.41-11.81,15.05-11.81s14.19,4.9,14.19,12.17h-10.51c0-2.45-1.51-4.1-4.18-4.1-2.52,0-4.1,1.3-4.1,3.24,0,1.66,1.37,2.59,3.89,3.17l6.7,1.44c5.9,1.3,9.15,4.03,9.15,9.79,0,7.71-6.55,12.39-15.91,12.39s-15.48-5.04-15.48-12.31h10.51Z"/>
      <path d="m143.14,18.29h10.44l.58,4.39c2.02-3.31,6.55-5.54,11.67-5.54,10.01,0,16.99,6.98,16.99,18.58s-6.19,19.59-16.92,19.59c-4.97,0-9.58-1.87-11.67-4.61v20.88h-11.09V18.29Zm19.95,27c5.26,0,8.57-3.67,8.57-9s-3.31-9-8.57-9-8.78,3.6-8.78,9,3.6,9,8.78,9Z"/>
      <path d="m189.22,54.29V0h11.09v54.29h-11.09Z"/>
      <path d="m204.48,54.29L225.22,1.15h11.09l-20.81,53.14h-11.02Z"/>
      <path d="m243.93,54.29v-26.79h-6.84v-9.22h6.84V7.13h11.09v11.16h6.84v9.22h-6.84v26.79h-11.09Z"/>
    </g>
  </g>
</svg>